<?xml version="1.0" encoding="UTF-8" standalone="no"?>
<svg
   xmlns:dc="http://purl.org/dc/elements/1.1/"
   xmlns:cc="http://creativecommons.org/ns#"
   xmlns:rdf="http://www.w3.org/1999/02/22-rdf-syntax-ns#"
   xmlns:svg="http://www.w3.org/2000/svg"
   xmlns="http://www.w3.org/2000/svg"
   xmlns:sodipodi="http://sodipodi.sourceforge.net/DTD/sodipodi-0.dtd"
   xmlns:inkscape="http://www.inkscape.org/namespaces/inkscape"
   version="1.1"
   width="372"
   height="137"
   viewBox="-0.5 -0.5 372.00001 137"
   id="svg3783"
   sodipodi:docname="logo.svg"
   inkscape:version="0.92.2 5c3e80d, 2017-08-06"
   inkscape:export-filename="/Users/bryce/programming/lmfa0/docs/static/logo-small.png"
   inkscape:export-xdpi="24.41"
   inkscape:export-ydpi="24.41">
  <metadata
     id="metadata3787">
    <rdf:RDF>
      <cc:Work
         rdf:about="">
        <dc:format>image/svg+xml</dc:format>
        <dc:type
           rdf:resource="http://purl.org/dc/dcmitype/StillImage" />
        <dc:title></dc:title>
      </cc:Work>
    </rdf:RDF>
  </metadata>
  <sodipodi:namedview
     pagecolor="#ffffff"
     bordercolor="#666666"
     borderopacity="1"
     objecttolerance="10"
     gridtolerance="10"
     guidetolerance="10"
     inkscape:pageopacity="0"
     inkscape:pageshadow="2"
     inkscape:window-width="945"
     inkscape:window-height="555"
     id="namedview3785"
     showgrid="false"
     inkscape:zoom="0.35355339"
     inkscape:cx="421.03371"
     inkscape:cy="-62.791119"
     inkscape:window-x="0"
     inkscape:window-y="0"
     inkscape:window-maximized="0"
     inkscape:current-layer="g3771"
     fit-margin-top="0"
     fit-margin-bottom="0"
     fit-margin-right="0"
     fit-margin-left="0" />
  <defs
     id="defs3763" />
  <g
     id="g3773"
     transform="translate(-114.64584,-7.9999981)">
    <rect
       x="0"
       y="25"
       width="590"
       height="190"
       pointer-events="all"
       id="rect3765"
       style="fill:none;stroke:none" />
    <g
       transform="translate(-0.5,-0.5)"
       id="g3771">
      <rect
         style="fill:#000000;fill-opacity:1"
         id="rect88"
         width="372"
         height="137"
         x="114.64584"
         y="7.9999981"
         inkscape:export-xdpi="25.927008"
         inkscape:export-ydpi="25.927008" />
      <path
         d="m 155.57917,124 q -4.53333,0 -8,-3.2 -3.33333,-3.2 -3.33333,-10.13333 v -70 h -19.6 v -10 h 30.93333 V 110 q 0,2.13333 1.06667,3.06667 1.06667,0.93333 3.6,0.93333 h 17.73333 v 10 z"
         style="font-size:medium;font-family:'Share Tech Mono';text-anchor:middle;fill:#f8a7a7;fill-opacity:1"
         id="path4624"
         inkscape:connector-curvature="0"
         inkscape:export-xdpi="25.927008"
         inkscape:export-ydpi="25.927008" />
      <path
         d="m 202.92084,57.333336 v 3.066666 q 3.46667,-3.066666 8.26667,-3.066666 h 0.8 q 9.33333,0 13.2,5.333333 4.4,-5.333333 11.59999,-5.333333 h 0.8 q 8.13334,0 12,4.133333 3.86667,4.133333 3.86667,14.666666 V 124 H 242.7875 V 76.000002 q 0,-5.466667 -1.2,-7.6 -1.06666,-2.133333 -5.06666,-2.133333 h -0.8 q -4,0 -5.6,2.8 -1.46667,2.666666 -1.6,6 V 124 H 217.85417 V 76.000002 q 0,-5.6 -1.33333,-7.6 -1.33333,-2.133333 -4.8,-2.133333 h -0.8 q -4,0 -5.6,2.4 -1.6,2.266666 -1.73333,5.2 V 124 H 192.92084 V 57.333336 Z"
         style="font-size:medium;font-family:'Share Tech Mono';text-anchor:middle;fill:#f8a7a7;fill-opacity:1"
         id="path4626"
         inkscape:connector-curvature="0"
         inkscape:export-xdpi="25.927008"
         inkscape:export-ydpi="25.927008" />
      <path
         d="m 299.59584,40.66667 q -2.13333,0 -3.46667,1.2 -1.2,1.066666 -1.2,2.8 v 12.666666 h 21.46667 v 9.999999 H 294.92917 V 114 h 16.13333 v 10 h -38.79999 v -10 h 11.33333 V 67.333335 h -11.33333 v -9.999999 h 11.33333 v -12 q 0,-6.799999 3.86667,-10.666666 3.86666,-4 10,-4 h 20.26666 v 10 z"
         style="font-size:medium;font-family:'Share Tech Mono';text-anchor:middle;fill:#f8a7a7;fill-opacity:1"
         id="path4628"
         inkscape:connector-curvature="0"
         inkscape:export-xdpi="25.927008"
         inkscape:export-ydpi="25.927008" />
      <path
         d="m 386.5375,124 q -1.73333,0 -3.86666,-1.06667 -2,-1.06666 -3.46667,-2.93333 -3.06666,4 -8.13333,4 h -11.86667 q -10.13333,0 -14.8,-4 -4.53333,-4.13333 -4.53333,-14 v -2.66667 q 0,-20.666662 19.46667,-20.666662 h 16.53333 v -6.666666 q 0,-4.133333 -2.53333,-6.4 -2.53334,-2.266667 -7.46667,-2.266667 h -20.66667 v -9.999999 h 19.33334 q 11.6,0 17.06666,5.066666 5.6,5.066667 5.6,16.266666 v 32.000002 q 0,2 1.46667,3.06666 1.6,0.93334 5.2,0.93334 V 124 Z m -16.79999,-10 q 4,0 5.06666,-1.86667 1.06667,-1.86666 1.06667,-4.8 V 92.666668 h -16.66667 q -3.46666,0 -5.73333,2.266666 -2.26667,2.266667 -2.26667,5.733336 v 6.66666 q 0,3.46667 1.6,5.06667 1.6,1.6 5.06667,1.6 z"
         style="font-size:medium;font-family:'Share Tech Mono';text-anchor:middle;fill:#f8a7a7;fill-opacity:1"
         id="path4630"
         inkscape:connector-curvature="0"
         inkscape:export-xdpi="25.927008"
         inkscape:export-ydpi="25.927008" />
      <path
         d="m 462.54584,101.33333 q 0,11.06667 -6.13334,16.93334 Q 450.41251,124 440.14584,124 h -2.66667 q -10.26666,0 -16.4,-5.73333 -6,-5.86667 -6,-16.93334 V 53.333336 q 0,-11.2 6,-16.933333 6,-5.733333 16.4,-5.733333 h 2.66667 q 10.4,0 16.4,5.733333 6,5.733333 6,16.933333 z M 451.21251,50.800003 q 0,-4.133333 -3.2,-7.066667 -3.06667,-3.066666 -7.86667,-3.066666 h -2.66667 q -4.8,0 -8,3.066666 -3.06666,2.933334 -3.06666,7.066667 v 36.133332 z m -24.8,53.066667 q 0,4.13333 3.06666,7.2 3.2,2.93333 8,2.93333 h 2.66667 q 4.8,0 7.86667,-2.93333 3.2,-3.06667 3.2,-7.2 V 67.866669 Z"
         style="font-size:medium;font-family:'Share Tech Mono';text-anchor:middle;fill:#ffffff;fill-opacity:1"
         id="path4632"
         inkscape:connector-curvature="0"
         inkscape:export-xdpi="25.927008"
         inkscape:export-ydpi="25.927008" />
    </g>
  </g>
</svg>
